<?xml version="1.0" encoding="UTF-8" standalone="no"?>
<!DOCTYPE svg PUBLIC "-//W3C//DTD SVG 1.1//EN" "http://www.w3.org/Graphics/SVG/1.1/DTD/svg11.dtd">
<svg width="100%" height="100%" viewBox="0 0 193 161" version="1.1" xmlns="http://www.w3.org/2000/svg" xmlns:xlink="http://www.w3.org/1999/xlink" xml:space="preserve" xmlns:serif="http://www.serif.com/" style="fill-rule:evenodd;clip-rule:evenodd;stroke-linejoin:round;stroke-miterlimit:2;">
    <g id="Artboard1" transform="matrix(0.994845,0,0,0.964072,0.117491,-176.425)">
        <rect x="-0.118" y="183" width="193.997" height="167" style="fill:none;"/>
        <clipPath id="_clip1">
            <rect x="-0.118" y="183" width="193.997" height="167"/>
        </clipPath>
        <g clip-path="url(#_clip1)">
            <g transform="matrix(1.00518,0,0,1.03727,191.437,198.548)">
                <g id="Logo">
                    <path d="M0,130.232L-175.997,-13.327C-178.689,-15.524 -182.406,-15.974 -185.546,-14.483C-188.685,-12.993 -190.686,-9.828 -190.686,-6.353L-190.686,137.009C-190.686,141.976 -186.662,146.003 -181.696,146.009L-5.699,146.206L-5.689,146.206C-1.885,146.206 1.509,143.813 2.788,140.23C4.067,136.643 2.951,132.638 0,130.232" style="fill:rgb(60,107,106);fill-rule:nonzero;"/>
                </g>
            </g>
        </g>
    </g>
</svg>
