<?xml version="1.0" encoding="UTF-8" standalone="no"?>
<!DOCTYPE svg PUBLIC "-//W3C//DTD SVG 1.1//EN" "http://www.w3.org/Graphics/SVG/1.1/DTD/svg11.dtd">
<svg width="100%" height="100%" viewBox="0 0 205 350" version="1.1" xmlns="http://www.w3.org/2000/svg" xmlns:xlink="http://www.w3.org/1999/xlink" xml:space="preserve" xmlns:serif="http://www.serif.com/" style="fill-rule:evenodd;clip-rule:evenodd;stroke-linejoin:round;stroke-miterlimit:2;">
    <g id="Logo">
        <g transform="matrix(1,0,0,1,80.2588,78.5347)">
            <path d="M0,-57.251C-1.274,-60.834 -4.662,-63.23 -8.465,-63.236L-71.492,-63.342L-71.507,-63.342C-73.897,-63.342 -76.189,-62.392 -77.877,-60.7C-79.569,-59.005 -80.516,-56.706 -80.507,-54.311L-80.326,-2.877C-80.314,0.593 -78.308,3.748 -75.169,5.229C-73.944,5.808 -72.632,6.091 -71.328,6.091C-69.291,6.091 -67.271,5.4 -65.633,4.062L-2.787,-47.266C0.158,-49.671 1.274,-53.668 0,-57.251" style="fill:rgb(60,107,106);fill-rule:nonzero;"/>
        </g>
        <g transform="matrix(1,0,0,1,190.568,203.99)">
            <path d="M0,130.232L-175.997,-13.327C-178.689,-15.524 -182.406,-15.974 -185.546,-14.483C-188.685,-12.993 -190.686,-9.828 -190.686,-6.353L-190.686,137.009C-190.686,141.976 -186.662,146.003 -181.696,146.009L-5.699,146.206L-5.689,146.206C-1.885,146.206 1.509,143.813 2.788,140.23C4.067,136.643 2.951,132.638 0,130.232" style="fill:rgb(60,107,106);fill-rule:nonzero;"/>
        </g>
        <g transform="matrix(1,0,0,1,204.24,261.416)">
            <path d="M0,-102.993C-0.034,-107.939 -4.054,-111.931 -9,-111.931L-9.003,-111.931L-137.556,-111.891C-141.382,-111.89 -144.79,-109.47 -146.05,-105.857C-147.312,-102.245 -146.15,-98.23 -143.156,-95.848L-13.9,6.981C-12.276,8.273 -10.294,8.938 -8.296,8.938C-6.957,8.938 -5.611,8.639 -4.36,8.03C-1.243,6.514 0.726,3.342 0.703,-0.124L0,-102.993Z" style="fill:rgb(60,107,106);fill-rule:nonzero;"/>
        </g>
        <g transform="matrix(1,0,0,1,199.88,113.716)">
            <path d="M0,-90.762C-3.116,-92.279 -6.828,-91.87 -9.541,-89.712L-104.012,-14.556C-107.006,-12.175 -108.167,-8.16 -106.906,-4.547C-105.646,-0.934 -102.238,1.486 -98.412,1.488L-4.454,1.517L-4.451,1.517C0.495,1.517 4.515,-2.475 4.549,-7.422L5.062,-82.608C5.086,-86.074 3.117,-89.246 0,-90.762" style="fill:rgb(60,107,106);fill-rule:nonzero;"/>
        </g>
        <g transform="matrix(1,0,0,1,80.3159,63.3423)">
            <path d="M0,-57.251C-1.274,-60.834 -4.662,-63.23 -8.465,-63.236L-71.492,-63.342L-71.507,-63.342C-73.897,-63.342 -76.189,-62.392 -77.877,-60.7C-79.569,-59.005 -80.516,-56.706 -80.507,-54.311L-80.326,-2.877C-80.314,0.593 -78.308,3.748 -75.169,5.229C-73.944,5.808 -72.632,6.091 -71.328,6.091C-69.291,6.091 -67.271,5.4 -65.633,4.062L-2.787,-47.266C0.158,-49.671 1.274,-53.668 0,-57.251" style="fill:rgb(226,139,113);fill-rule:nonzero;"/>
        </g>
        <g transform="matrix(1,0,0,1,190.625,188.797)">
            <path d="M0,130.232L-175.997,-13.327C-178.689,-15.524 -182.406,-15.974 -185.546,-14.483C-188.685,-12.993 -190.686,-9.828 -190.686,-6.353L-190.686,137.009C-190.686,141.976 -186.662,146.003 -181.696,146.009L-5.699,146.206L-5.689,146.206C-1.885,146.206 1.509,143.813 2.788,140.23C4.067,136.643 2.951,132.638 0,130.232" style="fill:rgb(226,139,113);fill-rule:nonzero;"/>
        </g>
        <g transform="matrix(1,0,0,1,204.297,246.224)">
            <path d="M0,-102.993C-0.034,-107.939 -4.054,-111.931 -9,-111.931L-9.003,-111.931L-137.556,-111.891C-141.382,-111.89 -144.79,-109.47 -146.05,-105.857C-147.312,-102.245 -146.15,-98.23 -143.156,-95.848L-13.9,6.981C-12.276,8.273 -10.294,8.938 -8.296,8.938C-6.957,8.938 -5.611,8.639 -4.36,8.03C-1.243,6.514 0.726,3.342 0.703,-0.124L0,-102.993Z" style="fill:rgb(226,139,113);fill-rule:nonzero;"/>
        </g>
        <g transform="matrix(1,0,0,1,199.938,98.5232)">
            <path d="M0,-90.762C-3.116,-92.279 -6.828,-91.87 -9.541,-89.712L-104.012,-14.556C-107.006,-12.174 -108.167,-8.159 -106.906,-4.547C-105.646,-0.934 -102.238,1.486 -98.412,1.488L-4.454,1.517L-4.451,1.517C0.495,1.517 4.515,-2.475 4.549,-7.422L5.062,-82.608C5.086,-86.074 3.117,-89.246 0,-90.762" style="fill:rgb(226,139,113);fill-rule:nonzero;"/>
        </g>
    </g>
</svg>
