<?xml version="1.0" encoding="UTF-8" standalone="no"?>
<!DOCTYPE svg PUBLIC "-//W3C//DTD SVG 1.1//EN" "http://www.w3.org/Graphics/SVG/1.1/DTD/svg11.dtd">
<svg width="100%" height="100%" viewBox="0 0 205 622" version="1.1" xmlns="http://www.w3.org/2000/svg" xmlns:xlink="http://www.w3.org/1999/xlink" xml:space="preserve" xmlns:serif="http://www.serif.com/" style="fill-rule:evenodd;clip-rule:evenodd;stroke-linejoin:round;stroke-miterlimit:2;">
    <g id="Logo">
        <g transform="matrix(1,0,0,1,80.2588,78.5347)">
            <path d="M0,-57.251C-1.274,-60.834 -4.662,-63.23 -8.465,-63.236L-71.492,-63.342L-71.507,-63.342C-73.897,-63.342 -76.189,-62.392 -77.877,-60.7C-79.569,-59.005 -80.516,-56.706 -80.507,-54.311L-80.326,-2.877C-80.314,0.593 -78.308,3.748 -75.169,5.229C-73.944,5.808 -72.632,6.091 -71.328,6.091C-69.291,6.091 -67.271,5.4 -65.633,4.062L-2.787,-47.266C0.158,-49.671 1.274,-53.668 0,-57.251" style="fill:rgb(60,107,106);fill-rule:nonzero;"/>
        </g>
        <g transform="matrix(1,0,0,1,190.568,203.99)">
            <path d="M0,130.232L-175.997,-13.327C-178.689,-15.524 -182.406,-15.974 -185.546,-14.483C-188.685,-12.993 -190.686,-9.828 -190.686,-6.353L-190.686,137.009C-190.686,141.976 -186.662,146.003 -181.696,146.009L-5.699,146.206L-5.689,146.206C-1.885,146.206 1.509,143.813 2.788,140.23C4.067,136.643 2.951,132.638 0,130.232" style="fill:rgb(60,107,106);fill-rule:nonzero;"/>
        </g>
        <g transform="matrix(1,0,0,1,204.24,261.416)">
            <path d="M0,-102.993C-0.034,-107.939 -4.054,-111.931 -9,-111.931L-9.003,-111.931L-137.556,-111.891C-141.382,-111.89 -144.79,-109.47 -146.05,-105.857C-147.312,-102.245 -146.15,-98.23 -143.156,-95.848L-13.9,6.981C-12.276,8.273 -10.294,8.938 -8.296,8.938C-6.957,8.938 -5.611,8.639 -4.36,8.03C-1.243,6.514 0.726,3.342 0.703,-0.124L0,-102.993Z" style="fill:rgb(60,107,106);fill-rule:nonzero;"/>
        </g>
        <g transform="matrix(1,0,0,1,199.88,113.716)">
            <path d="M0,-90.762C-3.116,-92.279 -6.828,-91.87 -9.541,-89.712L-104.012,-14.556C-107.006,-12.175 -108.167,-8.16 -106.906,-4.547C-105.646,-0.934 -102.238,1.486 -98.412,1.488L-4.454,1.517L-4.451,1.517C0.495,1.517 4.515,-2.475 4.549,-7.422L5.062,-82.608C5.086,-86.074 3.117,-89.246 0,-90.762" style="fill:rgb(60,107,106);fill-rule:nonzero;"/>
        </g>
        <g transform="matrix(1,0,0,1,80.3159,63.3423)">
            <path d="M0,-57.251C-1.274,-60.834 -4.662,-63.23 -8.465,-63.236L-71.492,-63.342L-71.507,-63.342C-73.897,-63.342 -76.189,-62.392 -77.877,-60.7C-79.569,-59.005 -80.516,-56.706 -80.507,-54.311L-80.326,-2.877C-80.314,0.593 -78.308,3.748 -75.169,5.229C-73.944,5.808 -72.632,6.091 -71.328,6.091C-69.291,6.091 -67.271,5.4 -65.633,4.062L-2.787,-47.266C0.158,-49.671 1.274,-53.668 0,-57.251" style="fill:rgb(226,139,113);fill-rule:nonzero;"/>
        </g>
        <g transform="matrix(1,0,0,1,190.625,188.797)">
            <path d="M0,130.232L-175.997,-13.327C-178.689,-15.524 -182.406,-15.974 -185.546,-14.483C-188.685,-12.993 -190.686,-9.828 -190.686,-6.353L-190.686,137.009C-190.686,141.976 -186.662,146.003 -181.696,146.009L-5.699,146.206L-5.689,146.206C-1.885,146.206 1.509,143.813 2.788,140.23C4.067,136.643 2.951,132.638 0,130.232" style="fill:rgb(226,139,113);fill-rule:nonzero;"/>
        </g>
        <g transform="matrix(1,0,0,1,204.297,246.224)">
            <path d="M0,-102.993C-0.034,-107.939 -4.054,-111.931 -9,-111.931L-9.003,-111.931L-137.556,-111.891C-141.382,-111.89 -144.79,-109.47 -146.05,-105.857C-147.312,-102.245 -146.15,-98.23 -143.156,-95.848L-13.9,6.981C-12.276,8.273 -10.294,8.938 -8.296,8.938C-6.957,8.938 -5.611,8.639 -4.36,8.03C-1.243,6.514 0.726,3.342 0.703,-0.124L0,-102.993Z" style="fill:rgb(226,139,113);fill-rule:nonzero;"/>
        </g>
        <g transform="matrix(1,0,0,1,199.938,98.5232)">
            <path d="M0,-90.762C-3.116,-92.279 -6.828,-91.87 -9.541,-89.712L-104.012,-14.556C-107.006,-12.174 -108.167,-8.159 -106.906,-4.547C-105.646,-0.934 -102.238,1.486 -98.412,1.488L-4.454,1.517L-4.451,1.517C0.495,1.517 4.515,-2.475 4.549,-7.422L5.062,-82.608C5.086,-86.074 3.117,-89.246 0,-90.762" style="fill:rgb(226,139,113);fill-rule:nonzero;"/>
        </g>
        <g transform="matrix(1,0,0,1,35.9307,400.234)">
            <path d="M0,47.595L-17.425,25.562C-18.073,24.698 -18.434,23.761 -18.434,22.825C-18.434,21.889 -18.146,21.169 -17.497,20.305L-1.08,-0.217C0,-1.585 0.576,-1.873 1.729,-1.873L3.961,-1.873C5.041,-1.873 5.545,-1.369 5.545,-0.432C5.545,0.36 5.329,0.791 4.537,1.728L-12.457,22.681L5.041,44.067C6.193,45.507 5.905,47.308 4.465,48.388C3.024,49.468 1.152,49.108 0,47.595M-27.434,48.532C-28.514,48.532 -29.234,47.812 -29.234,46.732L-29.234,-0.073C-29.234,-1.153 -28.514,-1.873 -27.434,-1.873L-24.914,-1.873C-23.834,-1.873 -23.113,-1.153 -23.113,-0.073L-23.113,46.732C-23.113,47.812 -23.834,48.532 -24.914,48.532L-27.434,48.532Z" style="fill:rgb(60,107,106);fill-rule:nonzero;"/>
        </g>
        <g transform="matrix(1,0,0,1,81.415,428.46)">
            <path d="M0,20.306L-0.937,20.306C-2.377,20.306 -3.024,19.802 -3.528,18.289L-14.329,-12.384C-14.617,-13.176 -14.689,-13.609 -14.689,-13.969C-14.689,-14.905 -14.113,-15.481 -12.962,-15.481L-10.873,-15.481C-9.505,-15.481 -9.073,-15.049 -8.497,-13.393L1.512,16.346L11.232,-13.393C11.809,-15.049 12.24,-15.481 13.608,-15.481L15.409,-15.481C16.562,-15.481 17.137,-14.905 17.137,-13.969C17.137,-13.609 17.065,-13.176 16.777,-12.384L1.151,33.555C0.647,35.068 -0.864,35.787 -2.521,35.284C-4.177,34.78 -4.825,33.339 -4.177,31.611L0,20.306Z" style="fill:rgb(60,107,106);fill-rule:nonzero;"/>
        </g>
        <g transform="matrix(1,0,0,1,138.059,397.57)">
            <path d="M0,51.196C-6.337,51.196 -8.641,49.036 -8.641,43.059L-8.641,2.52C-8.641,1.008 -7.633,0 -6.12,0L-5.185,0C-3.672,0 -2.664,1.008 -2.664,2.52L-2.664,42.628C-2.664,45.292 -1.944,46.156 0.432,46.156L3.097,46.156C4.032,46.156 4.608,46.731 4.608,47.595L4.608,49.612C4.608,50.548 4.104,51.196 3.024,51.196L0,51.196Z" style="fill:rgb(60,107,106);fill-rule:nonzero;"/>
        </g>
        <g transform="matrix(1,0,0,1,176.921,436.741)">
            <path d="M0,-11.737L0,-8.353L17.858,-8.353L17.858,-11.809C17.858,-17.21 14.689,-19.946 8.857,-19.946C3.097,-19.946 0,-17.137 0,-11.737M-5.976,-0.577L-5.976,-10.945C-5.976,-19.658 -0.647,-24.554 8.857,-24.554C18.434,-24.554 23.618,-19.946 23.618,-11.305L23.618,-6.049C23.618,-4.537 22.898,-3.817 21.387,-3.817L0,-3.817L0,-0.072C0,5.472 2.953,8.136 9.289,8.136C14.762,8.136 17.498,6.264 17.498,2.52L17.498,2.088C17.498,1.44 17.858,1.152 18.506,1.152L22.25,1.152C22.826,1.152 23.187,1.512 23.187,2.088L23.187,2.592C23.187,9.288 18.506,12.817 9.289,12.817C-0.72,12.817 -5.976,8.136 -5.976,-0.577" style="fill:rgb(60,107,106);fill-rule:nonzero;"/>
        </g>
        <g transform="matrix(1,0,0,1,8.4971,484.761)">
            <path d="M0,50.404C-1.08,50.404 -1.801,49.684 -1.801,48.604L-1.801,2.88C-1.801,1.08 -0.721,0 1.08,0L26.786,0C27.938,0 28.586,0.648 28.586,1.728L28.586,3.383C28.586,4.464 27.938,5.112 26.786,5.112L4.32,5.112L4.32,23.042L23.401,23.042C25.058,23.042 25.994,23.977 25.994,25.49L25.994,25.778C25.994,27.29 25.058,28.226 23.401,28.226L4.32,28.226L4.32,48.604C4.32,49.684 3.6,50.404 2.52,50.404L0,50.404Z" style="fill:rgb(60,107,106);fill-rule:nonzero;"/>
        </g>
        <g transform="matrix(1,0,0,1,86.5527,512.123)">
            <path d="M0,10.297L0,-0.072C0,-5.761 -3.24,-8.713 -9.289,-8.713C-15.338,-8.713 -18.578,-5.761 -18.578,-0.072L-18.578,10.297C-18.578,15.985 -15.338,19.01 -9.217,19.01C-3.169,19.01 0,15.985 0,10.297M-24.626,9.865L-24.626,0.432C-24.626,-8.497 -19.082,-13.537 -9.289,-13.537C0.576,-13.537 6.12,-8.497 6.12,0.432L6.12,9.865C6.12,18.794 0.576,23.834 -9.217,23.834C-19.082,23.834 -24.626,18.794 -24.626,9.865" style="fill:rgb(60,107,106);fill-rule:nonzero;"/>
        </g>
        <g transform="matrix(1,0,0,1,130.836,500.386)">
            <path d="M0,32.979C0,34.13 -0.647,34.779 -1.8,34.779L-4.176,34.779C-5.256,34.779 -5.977,34.059 -5.977,32.979L-5.977,7.489L-9.937,3.528C-11.089,2.376 -11.089,1.296 -10.009,0.215L-9.145,-0.648C-8.208,-1.584 -6.912,-1.512 -5.977,-0.577L-1.656,3.744C0.433,0.072 4.32,-1.8 9.289,-1.8C18.002,-1.8 23.33,3.457 23.33,12.168L23.33,32.979C23.33,34.059 22.61,34.779 21.53,34.779L19.154,34.779C18.074,34.779 17.354,34.059 17.354,32.979L17.354,12.168C17.354,6.336 14.258,3.168 8.713,3.168C3.024,3.168 0,6.336 0,12.168L0,32.979Z" style="fill:rgb(60,107,106);fill-rule:nonzero;"/>
        </g>
        <g transform="matrix(1,0,0,1,198.163,488.721)">
            <path d="M0,46.444C-7.488,46.444 -10.368,43.78 -10.368,36.579L-10.368,15.553L-15.77,15.553C-16.705,15.553 -17.281,14.977 -17.281,14.113L-17.281,12.097C-17.281,11.233 -16.705,10.657 -15.77,10.657L-10.368,10.657L-10.368,2.304C-10.368,0.936 -9.433,0 -8.064,0L-6.624,0C-5.256,0 -4.32,0.936 -4.32,2.304L-4.32,10.657L4.032,10.657C4.896,10.657 5.545,11.233 5.545,12.097L5.545,14.113C5.545,14.977 4.896,15.553 4.032,15.553L-4.32,15.553L-4.32,36.507C-4.32,40.179 -3.168,41.475 0.216,41.475L4.032,41.475C4.969,41.475 5.545,42.051 5.545,42.916L5.545,44.86C5.545,45.796 4.896,46.444 3.961,46.444L0,46.444Z" style="fill:rgb(60,107,106);fill-rule:nonzero;"/>
        </g>
        <g transform="matrix(1,0,0,1,10.4404,609.541)">
            <path d="M0,-11.737L0,-8.353L17.858,-8.353L17.858,-11.809C17.858,-17.21 14.689,-19.946 8.857,-19.946C3.097,-19.946 0,-17.137 0,-11.737M-5.976,-0.577L-5.976,-10.945C-5.976,-19.658 -0.647,-24.554 8.857,-24.554C18.434,-24.554 23.618,-19.946 23.618,-11.305L23.618,-6.049C23.618,-4.537 22.898,-3.817 21.387,-3.817L0,-3.817L0,-0.072C0,5.472 2.953,8.136 9.289,8.136C14.762,8.136 17.498,6.264 17.498,2.52L17.498,2.088C17.498,1.44 17.858,1.152 18.506,1.152L22.25,1.152C22.826,1.152 23.187,1.512 23.187,2.088L23.187,2.592C23.187,9.288 18.506,12.817 9.289,12.817C-0.72,12.817 -5.976,8.136 -5.976,-0.577" style="fill:rgb(60,107,106);fill-rule:nonzero;"/>
        </g>
        <g transform="matrix(1,0,0,1,71.6699,586.787)">
            <path d="M0,32.979C0,34.13 -0.647,34.779 -1.8,34.779L-4.176,34.779C-5.256,34.779 -5.977,34.059 -5.977,32.979L-5.977,7.489L-9.937,3.528C-11.089,2.376 -11.089,1.296 -10.009,0.215L-9.145,-0.648C-8.208,-1.584 -6.912,-1.512 -5.977,-0.577L-1.656,3.744C0.433,0.072 4.32,-1.8 9.289,-1.8C18.002,-1.8 23.33,3.457 23.33,12.168L23.33,32.979C23.33,34.059 22.61,34.779 21.53,34.779L19.154,34.779C18.074,34.779 17.354,34.059 17.354,32.979L17.354,12.168C17.354,6.336 14.258,3.168 8.713,3.168C3.024,3.168 0,6.336 0,12.168L0,32.979Z" style="fill:rgb(60,107,106);fill-rule:nonzero;"/>
        </g>
        <g transform="matrix(1,0,0,1,149.678,598.523)">
            <path d="M0,10.297L0,-0.072C0,-5.761 -3.24,-8.713 -9.289,-8.713C-15.338,-8.713 -18.578,-5.761 -18.578,-0.072L-18.578,10.297C-18.578,15.985 -15.338,19.01 -9.217,19.01C-3.169,19.01 0,15.985 0,10.297M-24.626,9.865L-24.626,0.432C-24.626,-8.497 -19.082,-13.537 -9.289,-13.537C0.576,-13.537 6.12,-8.497 6.12,0.432L6.12,9.865C6.12,18.794 0.576,23.834 -9.217,23.834C-19.082,23.834 -24.626,18.794 -24.626,9.865" style="fill:rgb(60,107,106);fill-rule:nonzero;"/>
        </g>
        <g transform="matrix(1,0,0,1,198.162,575.121)">
            <path d="M0,46.444C-7.488,46.444 -10.368,43.78 -10.368,36.579L-10.368,15.553L-15.77,15.553C-16.705,15.553 -17.281,14.977 -17.281,14.113L-17.281,12.097C-17.281,11.233 -16.705,10.657 -15.77,10.657L-10.368,10.657L-10.368,2.304C-10.368,0.936 -9.433,0 -8.064,0L-6.624,0C-5.256,0 -4.32,0.936 -4.32,2.304L-4.32,10.657L4.032,10.657C4.896,10.657 5.545,11.233 5.545,12.097L5.545,14.113C5.545,14.977 4.896,15.553 4.032,15.553L-4.32,15.553L-4.32,36.507C-4.32,40.179 -3.168,41.475 0.216,41.475L4.032,41.475C4.969,41.475 5.545,42.051 5.545,42.916L5.545,44.86C5.545,45.796 4.896,46.444 3.961,46.444L0,46.444Z" style="fill:rgb(60,107,106);fill-rule:nonzero;"/>
        </g>
    </g>
</svg>
